<svg xmlns="http://www.w3.org/2000/svg" xmlns:xlink="http://www.w3.org/1999/xlink" width="2000" zoomAndPan="magnify" viewBox="0 0 1500 1499.999933" height="2000" preserveAspectRatio="xMidYMid meet" version="1.0"><defs><g/><clipPath id="10286a3b19"><path d="M 59.511719 265.304688 L 1440.261719 265.304688 L 1440.261719 1349.804688 L 59.511719 1349.804688 Z M 59.511719 265.304688 " clip-rule="nonzero"/></clipPath></defs><g clip-path="url(#10286a3b19)"><path fill="#ffbd59" d="M 1440.476562 446.988281 L 1440.476562 1128.132812 C 1440.476562 1129.4375 1439.910156 1130.597656 1439 1131.398438 C 1438.335938 1131.984375 1437.488281 1132.378906 1436.546875 1132.460938 L 1409.003906 1135.023438 L 1397.203125 1136.121094 L 1367.425781 1138.902344 L 1359.820312 1139.609375 L 1359.820312 1345.21875 C 1359.820312 1346.960938 1358.792969 1348.519531 1357.191406 1349.203125 C 1356.644531 1349.445312 1356.058594 1349.5625 1355.476562 1349.5625 C 1354.394531 1349.5625 1353.316406 1349.148438 1352.496094 1348.382812 L 1295.398438 1294.457031 L 1295.386719 1294.457031 C 1295.15625 1294.304688 1294.945312 1294.132812 1294.742188 1293.945312 L 1151.855469 1158.988281 L 1117.480469 1162.195312 L 1105.679688 1163.292969 L 1061.863281 1167.371094 L 1050.070312 1168.46875 L 1006.25 1172.550781 L 994.457031 1173.65625 L 994.445312 1173.65625 L 950.625 1177.738281 L 938.832031 1178.835938 L 895 1182.914062 L 883.207031 1184.011719 L 883.191406 1184.011719 L 839.382812 1188.109375 L 839.367188 1188.109375 L 827.574219 1189.207031 L 783.761719 1193.285156 L 771.949219 1194.382812 L 728.128906 1198.464844 L 716.335938 1199.5625 L 672.519531 1203.65625 L 660.71875 1204.753906 L 616.898438 1208.835938 L 605.105469 1209.933594 L 561.273438 1214.015625 L 549.480469 1215.113281 L 549.46875 1215.113281 L 505.65625 1219.207031 L 493.863281 1220.304688 L 450.03125 1224.386719 L 438.238281 1225.484375 L 394.40625 1229.5625 L 382.609375 1230.664062 L 382.597656 1230.664062 L 338.785156 1234.757812 L 326.984375 1235.855469 L 283.167969 1239.933594 L 271.367188 1241.035156 L 227.554688 1245.113281 L 215.753906 1246.210938 L 171.9375 1250.304688 L 160.136719 1251.40625 L 122.015625 1254.953125 C 120.777344 1255.0625 119.550781 1254.648438 118.636719 1253.792969 L 60.960938 1199.382812 L 60.90625 1199.339844 C 60.699219 1199.148438 60.511719 1198.941406 60.359375 1198.714844 C 60.285156 1198.617188 60.222656 1198.519531 60.167969 1198.410156 C 59.980469 1198.121094 59.84375 1197.800781 59.746094 1197.476562 C 59.65625 1197.207031 59.609375 1196.925781 59.574219 1196.640625 C 59.558594 1196.488281 59.554688 1196.339844 59.554688 1196.1875 L 59.554688 270.058594 C 59.554688 268.84375 60.0625 267.683594 60.960938 266.855469 C 61.859375 266.023438 63.082031 265.625 64.296875 265.734375 L 1310.050781 381.820312 L 1324.578125 383.179688 L 1375.945312 387.964844 L 1378.617188 388.214844 L 1378.789062 388.226562 C 1378.886719 388.242188 1378.976562 388.246094 1379.074219 388.261719 C 1379.183594 388.28125 1379.28125 388.304688 1379.375 388.324219 C 1379.527344 388.359375 1379.667969 388.398438 1379.816406 388.457031 C 1379.90625 388.488281 1380.003906 388.515625 1380.085938 388.566406 C 1380.203125 388.605469 1380.316406 388.664062 1380.425781 388.730469 C 1380.515625 388.773438 1380.597656 388.820312 1380.6875 388.871094 C 1380.785156 388.925781 1380.875 388.988281 1380.957031 389.0625 C 1381.074219 389.140625 1381.199219 389.234375 1381.304688 389.347656 C 1381.324219 389.359375 1381.335938 389.367188 1381.359375 389.386719 L 1439.117188 443.824219 C 1439.605469 444.28125 1439.972656 444.855469 1440.203125 445.476562 C 1440.386719 445.953125 1440.46875 446.464844 1440.46875 446.988281 Z M 1440.476562 446.988281 " fill-opacity="1" fill-rule="nonzero"/><path fill="#ffde59" d="M 1440.203125 445.476562 C 1439.972656 444.855469 1439.605469 444.28125 1439.117188 443.824219 L 1381.359375 389.386719 C 1381.359375 389.386719 1381.324219 389.351562 1381.304688 389.347656 C 1381.191406 389.234375 1381.074219 389.140625 1380.957031 389.0625 C 1380.867188 388.988281 1380.785156 388.925781 1380.6875 388.871094 C 1380.597656 388.8125 1380.515625 388.773438 1380.425781 388.730469 C 1380.316406 388.667969 1380.210938 388.613281 1380.085938 388.566406 C 1379.996094 388.523438 1379.902344 388.488281 1379.816406 388.457031 C 1379.667969 388.398438 1379.527344 388.359375 1379.375 388.324219 C 1379.28125 388.304688 1379.183594 388.28125 1379.074219 388.261719 C 1378.976562 388.246094 1378.886719 388.242188 1378.789062 388.226562 L 1378.617188 388.214844 L 1375.945312 387.964844 L 1324.578125 383.179688 L 1310.050781 381.820312 L 64.289062 265.734375 C 63.074219 265.625 61.859375 266.023438 60.953125 266.855469 C 60.050781 267.683594 59.546875 268.84375 59.546875 270.058594 L 59.546875 1196.1875 C 59.546875 1196.339844 59.558594 1196.488281 59.566406 1196.640625 C 59.601562 1196.925781 59.65625 1197.207031 59.738281 1197.476562 C 59.835938 1197.800781 59.980469 1198.121094 60.160156 1198.410156 C 60.214844 1198.519531 60.277344 1198.617188 60.355469 1198.714844 C 60.507812 1198.941406 60.691406 1199.148438 60.898438 1199.339844 L 60.953125 1199.382812 L 118.660156 1253.78125 C 119.570312 1254.636719 120.800781 1255.050781 122.035156 1254.941406 L 160.15625 1251.390625 L 171.957031 1250.292969 L 215.777344 1246.199219 L 227.574219 1245.101562 L 271.386719 1241.019531 L 283.1875 1239.921875 L 327.007812 1235.839844 L 338.804688 1234.742188 L 382.617188 1230.648438 L 382.632812 1230.648438 L 394.425781 1229.550781 L 438.257812 1225.46875 L 450.050781 1224.371094 L 493.882812 1220.289062 L 505.675781 1219.191406 L 549.488281 1215.097656 L 549.5 1215.097656 L 561.296875 1214 L 605.128906 1209.917969 L 616.921875 1208.820312 L 660.738281 1204.742188 L 672.539062 1203.644531 L 716.359375 1199.546875 L 728.152344 1198.449219 L 771.96875 1194.371094 L 783.785156 1193.273438 L 827.59375 1189.191406 L 839.386719 1188.09375 L 839.402344 1188.09375 L 883.214844 1184 L 883.226562 1184 L 895.019531 1182.902344 L 938.851562 1178.820312 L 950.644531 1177.722656 L 994.464844 1173.640625 L 994.476562 1173.640625 L 1006.273438 1172.535156 L 1050.089844 1168.457031 L 1061.882812 1167.359375 L 1105.703125 1163.277344 L 1117.503906 1162.179688 L 1151.875 1158.976562 L 1294.765625 1293.929688 C 1294.957031 1294.117188 1295.179688 1294.289062 1295.40625 1294.441406 L 1295.417969 1294.441406 L 1352.515625 1348.367188 C 1353.335938 1349.140625 1354.414062 1349.550781 1355.5 1349.550781 C 1356.085938 1349.550781 1356.671875 1349.433594 1357.210938 1349.191406 C 1358.804688 1348.507812 1359.84375 1346.941406 1359.84375 1345.207031 L 1359.84375 1139.59375 L 1367.445312 1138.890625 L 1397.226562 1136.105469 L 1409.027344 1135.007812 L 1436.570312 1132.445312 C 1437.515625 1132.355469 1438.359375 1131.972656 1439.019531 1131.382812 C 1439.933594 1130.582031 1440.496094 1129.414062 1440.496094 1128.117188 L 1440.496094 446.988281 C 1440.496094 446.46875 1440.410156 445.957031 1440.230469 445.476562 Z M 68.234375 274.820312 L 1155.445312 376.128906 L 1320.914062 391.546875 L 1335.441406 392.910156 L 1374.039062 396.5 L 1374.039062 1069.738281 L 1370.488281 1070.0625 L 1370.476562 1070.0625 L 1339.640625 1072.941406 L 1327.839844 1074.039062 L 1298.058594 1076.820312 L 1297.3125 1076.882812 C 1295.089844 1077.089844 1293.371094 1078.96875 1293.371094 1081.207031 L 1293.371094 1280.597656 L 1156.480469 1151.3125 C 1156.289062 1151.117188 1156.058594 1150.953125 1155.832031 1150.800781 L 1155.8125 1150.785156 L 1098.722656 1096.867188 C 1097.921875 1096.105469 1096.84375 1095.6875 1095.746094 1095.6875 C 1095.605469 1095.6875 1095.476562 1095.699219 1095.34375 1095.707031 L 1048.128906 1100.105469 L 1036.328125 1101.210938 L 1036.316406 1101.210938 L 992.503906 1105.289062 L 980.710938 1106.386719 L 936.878906 1110.46875 L 925.085938 1111.566406 L 925.070312 1111.566406 L 881.253906 1115.648438 L 869.472656 1116.753906 L 869.460938 1116.753906 L 825.640625 1120.832031 L 813.839844 1121.929688 L 770.023438 1126.011719 L 758.222656 1127.109375 L 714.410156 1131.191406 L 702.609375 1132.296875 L 658.792969 1136.375 L 647 1137.472656 L 603.167969 1141.554688 L 591.367188 1142.652344 L 547.546875 1146.734375 L 547.535156 1146.734375 L 535.753906 1147.839844 L 491.9375 1151.917969 L 480.136719 1153.015625 L 436.316406 1157.097656 L 424.523438 1158.195312 L 380.707031 1162.277344 L 380.691406 1162.277344 L 368.898438 1163.382812 L 325.078125 1167.460938 L 325.066406 1167.460938 L 313.273438 1168.558594 L 269.460938 1172.640625 L 257.648438 1173.738281 L 213.835938 1177.820312 L 213.820312 1177.820312 L 202.042969 1178.925781 L 202.027344 1178.925781 L 158.21875 1183.003906 L 158.203125 1183.003906 L 146.410156 1184.101562 L 146.394531 1184.101562 L 102.578125 1188.183594 L 90.785156 1189.28125 L 68.53125 1191.351562 L 68.207031 1191.386719 L 68.207031 274.820312 Z M 123.195312 1246.113281 L 73.859375 1199.609375 L 99.636719 1197.207031 L 99.648438 1197.207031 L 151.339844 1243.484375 Z M 163.140625 1242.394531 L 111.4375 1196.109375 L 155.253906 1192.027344 L 206.964844 1238.3125 L 163.132812 1242.394531 Z M 218.757812 1237.214844 L 167.054688 1190.929688 L 210.875 1186.851562 L 262.578125 1233.132812 Z M 274.378906 1232.023438 L 274.363281 1232.023438 L 222.671875 1185.746094 L 266.484375 1181.664062 L 318.1875 1227.941406 Z M 329.988281 1226.84375 L 278.285156 1180.558594 L 322.105469 1176.480469 L 373.808594 1222.761719 Z M 385.601562 1221.664062 L 333.898438 1175.382812 L 377.730469 1171.300781 L 429.433594 1217.585938 Z M 441.234375 1216.472656 L 441.21875 1216.472656 L 389.53125 1170.195312 L 433.347656 1166.117188 L 485.050781 1212.390625 Z M 496.84375 1211.292969 L 445.140625 1165.011719 L 488.960938 1160.929688 L 540.664062 1207.214844 Z M 552.464844 1206.113281 L 500.761719 1159.832031 L 544.578125 1155.75 L 596.28125 1202.035156 Z M 608.074219 1200.9375 L 556.371094 1154.652344 L 600.191406 1150.574219 L 651.894531 1196.847656 L 608.074219 1200.945312 Z M 663.695312 1195.742188 L 611.992188 1149.460938 L 655.808594 1145.378906 L 707.519531 1191.664062 L 663.6875 1195.742188 Z M 719.3125 1190.566406 L 667.601562 1144.28125 L 711.433594 1140.203125 L 763.136719 1186.484375 L 719.320312 1190.566406 Z M 774.929688 1185.371094 L 774.917969 1185.371094 L 723.226562 1139.097656 L 767.039062 1135.015625 L 818.742188 1181.292969 Z M 830.542969 1180.195312 L 778.839844 1133.910156 L 822.652344 1129.832031 L 822.664062 1129.832031 L 874.367188 1176.113281 L 830.550781 1180.195312 Z M 886.160156 1175.015625 L 834.453125 1128.730469 L 878.285156 1124.652344 L 929.988281 1170.933594 L 886.167969 1175.015625 Z M 941.773438 1169.824219 L 890.070312 1123.546875 L 933.886719 1119.464844 L 933.902344 1119.464844 L 985.59375 1165.742188 Z M 997.390625 1164.644531 L 945.6875 1118.359375 L 989.507812 1114.28125 L 1041.210938 1160.5625 Z M 1053.011719 1159.464844 L 1001.300781 1113.183594 L 1045.117188 1109.101562 L 1096.824219 1155.386719 Z M 1108.628906 1154.273438 L 1108.617188 1154.273438 L 1056.925781 1107.996094 L 1094.164062 1104.523438 L 1143.410156 1151.035156 L 1108.621094 1154.273438 Z M 1351.109375 1335.132812 L 1302.035156 1288.78125 L 1302.035156 1250.574219 L 1351.109375 1294.503906 Z M 1351.109375 1282.84375 L 1302.035156 1238.914062 L 1302.035156 1197.71875 L 1351.109375 1241.648438 Z M 1351.109375 1229.992188 L 1302.035156 1186.0625 L 1302.035156 1144.882812 L 1351.109375 1188.8125 Z M 1351.109375 1177.148438 L 1302.035156 1133.21875 L 1302.035156 1092.039062 L 1351.109375 1135.96875 Z M 1358.566406 1130.984375 L 1306.863281 1084.707031 L 1336.640625 1081.925781 L 1388.347656 1128.199219 Z M 1400.144531 1127.109375 L 1348.4375 1080.828125 L 1378.761719 1078.003906 C 1378.925781 1077.988281 1379.085938 1077.960938 1379.253906 1077.925781 L 1430.996094 1124.242188 L 1400.152344 1127.109375 Z M 1431.761719 1113.277344 L 1382.699219 1069.363281 L 1382.699219 1028.167969 L 1431.765625 1072.085938 L 1431.765625 1113.277344 Z M 1431.761719 1060.4375 L 1382.699219 1016.519531 L 1382.699219 975.328125 L 1431.765625 1019.242188 L 1431.765625 1060.4375 Z M 1431.761719 1007.59375 L 1382.699219 963.679688 L 1382.699219 922.484375 L 1431.765625 966.398438 L 1431.765625 1007.59375 Z M 1431.761719 954.75 L 1382.699219 910.835938 L 1382.699219 869.640625 L 1431.765625 913.554688 L 1431.765625 954.75 Z M 1431.761719 901.894531 L 1382.699219 857.980469 L 1382.699219 816.785156 L 1431.765625 860.699219 L 1431.765625 901.894531 Z M 1431.761719 849.050781 L 1382.699219 805.136719 L 1382.699219 763.941406 L 1431.765625 807.855469 L 1431.765625 849.050781 Z M 1431.761719 796.207031 L 1382.699219 752.292969 L 1382.699219 711.097656 L 1431.765625 755.011719 L 1431.765625 796.207031 Z M 1431.761719 743.363281 L 1382.699219 699.449219 L 1382.699219 658.25 L 1431.765625 702.164062 L 1431.765625 743.363281 Z M 1431.761719 690.515625 L 1382.699219 646.601562 L 1382.699219 605.40625 L 1431.765625 649.320312 L 1431.765625 690.515625 Z M 1431.761719 637.671875 L 1382.699219 593.757812 L 1382.699219 552.5625 L 1431.765625 596.476562 L 1431.765625 637.671875 Z M 1431.761719 584.828125 L 1382.699219 540.914062 L 1382.699219 499.71875 L 1431.765625 543.636719 L 1431.765625 584.828125 Z M 1431.761719 531.984375 L 1382.699219 488.070312 L 1382.699219 446.871094 L 1431.765625 490.785156 L 1431.765625 531.984375 Z M 1431.761719 479.128906 L 1382.699219 435.214844 L 1382.699219 402.597656 L 1431.765625 448.84375 L 1431.765625 479.121094 Z M 1431.761719 479.128906 " fill-opacity="1" fill-rule="nonzero"/></g><g fill="#000000" fill-opacity="1"><g transform="translate(204.412274, 850.847252)"><g><path d="M 331.203125 -315 L 331.203125 0 L 257.84375 0 L 118.796875 -167.84375 L 118.796875 0 L 31.5 0 L 31.5 -315 L 104.84375 -315 L 243.90625 -147.15625 L 243.90625 -315 Z M 331.203125 -315 "/></g></g></g><g fill="#000000" fill-opacity="1"><g transform="translate(544.611607, 850.847252)"><g><path d="M 273.59375 -164.25 C 291.59375 -157.945312 305.691406 -148.117188 315.890625 -134.765625 C 326.097656 -121.421875 331.203125 -105.300781 331.203125 -86.40625 C 331.203125 -58.800781 320.097656 -37.5 297.890625 -22.5 C 275.691406 -7.5 243.59375 0 201.59375 0 L 31.5 0 L 31.5 -315 L 192.59375 -315 C 232.800781 -315 263.40625 -307.570312 284.40625 -292.71875 C 305.40625 -277.875 315.90625 -257.851562 315.90625 -232.65625 C 315.90625 -217.65625 312.226562 -204.226562 304.875 -192.375 C 297.519531 -180.519531 287.09375 -171.144531 273.59375 -164.25 Z M 119.703125 -250.65625 L 119.703125 -189.90625 L 180.90625 -189.90625 C 210.90625 -189.90625 225.90625 -200.101562 225.90625 -220.5 C 225.90625 -240.601562 210.90625 -250.65625 180.90625 -250.65625 Z M 194.40625 -64.34375 C 225.601562 -64.34375 241.203125 -74.992188 241.203125 -96.296875 C 241.203125 -117.597656 225.601562 -128.25 194.40625 -128.25 L 119.703125 -128.25 L 119.703125 -64.34375 Z M 194.40625 -64.34375 "/></g></g></g><g fill="#000000" fill-opacity="1"><g transform="translate(868.160934, 850.847252)"><g><path d="M 331.203125 -315 L 331.203125 0 L 257.84375 0 L 118.796875 -167.84375 L 118.796875 0 L 31.5 0 L 31.5 -315 L 104.84375 -315 L 243.90625 -147.15625 L 243.90625 -315 Z M 331.203125 -315 "/></g></g></g><g fill="#000000" fill-opacity="1"><g transform="translate(226.901343, 983.647215)"><g><path d="M 60.359375 -57.40625 L 60.359375 0 L 46.984375 0 L 21.640625 -30.59375 L 21.640625 0 L 5.734375 0 L 5.734375 -57.40625 L 19.109375 -57.40625 L 44.4375 -26.8125 L 44.4375 -57.40625 Z M 60.359375 -57.40625 "/></g></g></g><g fill="#000000" fill-opacity="1"><g transform="translate(288.89015, 983.647215)"><g><path d="M 51.828125 -12.546875 L 51.828125 0 L 5.734375 0 L 5.734375 -57.40625 L 50.765625 -57.40625 L 50.765625 -44.859375 L 21.8125 -44.859375 L 21.8125 -35.171875 L 47.3125 -35.171875 L 47.3125 -23.046875 L 21.8125 -23.046875 L 21.8125 -12.546875 Z M 51.828125 -12.546875 "/></g></g></g><g fill="#000000" fill-opacity="1"><g transform="translate(339.891496, 983.647215)"><g><path d="M 95.78125 -57.40625 L 77.15625 0 L 59.78125 0 L 48.796875 -34.9375 L 37.3125 0 L 19.921875 0 L 1.3125 -57.40625 L 18.046875 -57.40625 L 29.609375 -20.75 L 41.734375 -57.40625 L 56.65625 -57.40625 L 68.21875 -20.421875 L 80.28125 -57.40625 Z M 95.78125 -57.40625 "/></g></g></g><g fill="#000000" fill-opacity="1"><g transform="translate(432.874791, 983.647215)"><g/></g></g><g fill="#000000" fill-opacity="1"><g transform="translate(452.635668, 983.647215)"><g><path d="M 49.859375 -29.9375 C 53.140625 -28.78125 55.707031 -26.984375 57.5625 -24.546875 C 59.425781 -22.117188 60.359375 -19.1875 60.359375 -15.75 C 60.359375 -10.71875 58.332031 -6.832031 54.28125 -4.09375 C 50.238281 -1.363281 44.390625 0 36.734375 0 L 5.734375 0 L 5.734375 -57.40625 L 35.09375 -57.40625 C 42.414062 -57.40625 47.988281 -56.050781 51.8125 -53.34375 C 55.644531 -50.632812 57.5625 -46.984375 57.5625 -42.390625 C 57.5625 -39.660156 56.890625 -37.210938 55.546875 -35.046875 C 54.210938 -32.890625 52.316406 -31.1875 49.859375 -29.9375 Z M 21.8125 -45.671875 L 21.8125 -34.609375 L 32.96875 -34.609375 C 38.425781 -34.609375 41.15625 -36.46875 41.15625 -40.1875 C 41.15625 -43.84375 38.425781 -45.671875 32.96875 -45.671875 Z M 35.421875 -11.71875 C 41.109375 -11.71875 43.953125 -13.660156 43.953125 -17.546875 C 43.953125 -21.429688 41.109375 -23.375 35.421875 -23.375 L 21.8125 -23.375 L 21.8125 -11.71875 Z M 35.421875 -11.71875 "/></g></g></g><g fill="#000000" fill-opacity="1"><g transform="translate(511.590612, 983.647215)"><g><path d="M 51.828125 -12.546875 L 51.828125 0 L 5.734375 0 L 5.734375 -57.40625 L 50.765625 -57.40625 L 50.765625 -44.859375 L 21.8125 -44.859375 L 21.8125 -35.171875 L 47.3125 -35.171875 L 47.3125 -23.046875 L 21.8125 -23.046875 L 21.8125 -12.546875 Z M 51.828125 -12.546875 "/></g></g></g><g fill="#000000" fill-opacity="1"><g transform="translate(562.591958, 983.647215)"><g><path d="M 5.734375 -57.40625 L 21.96875 -57.40625 L 21.96875 0 L 5.734375 0 Z M 5.734375 -57.40625 "/></g></g></g><g fill="#000000" fill-opacity="1"><g transform="translate(586.288642, 983.647215)"><g><path d="M 30.828125 -15.25 L 21.96875 -15.25 L 21.96875 0 L 5.734375 0 L 5.734375 -57.40625 L 31.984375 -57.40625 C 37.171875 -57.40625 41.675781 -56.539062 45.5 -54.8125 C 49.332031 -53.09375 52.285156 -50.632812 54.359375 -47.4375 C 56.441406 -44.238281 57.484375 -40.476562 57.484375 -36.15625 C 57.484375 -32.007812 56.507812 -28.390625 54.5625 -25.296875 C 52.625 -22.203125 49.851562 -19.785156 46.25 -18.046875 L 58.625 0 L 41.25 0 Z M 41.078125 -36.15625 C 41.078125 -38.84375 40.226562 -40.921875 38.53125 -42.390625 C 36.84375 -43.867188 34.332031 -44.609375 31 -44.609375 L 21.96875 -44.609375 L 21.96875 -27.796875 L 31 -27.796875 C 34.332031 -27.796875 36.84375 -28.519531 38.53125 -29.96875 C 40.226562 -31.414062 41.078125 -33.476562 41.078125 -36.15625 Z M 41.078125 -36.15625 "/></g></g></g><g fill="#000000" fill-opacity="1"><g transform="translate(642.865709, 983.647215)"><g><path d="M 32.21875 1.140625 C 23.695312 1.140625 17.070312 -1.179688 12.34375 -5.828125 C 7.613281 -10.472656 5.25 -17.054688 5.25 -25.578125 L 5.25 -57.40625 L 21.484375 -57.40625 L 21.484375 -26.078125 C 21.484375 -16.890625 25.117188 -12.296875 32.390625 -12.296875 C 39.609375 -12.296875 43.21875 -16.890625 43.21875 -26.078125 L 43.21875 -57.40625 L 59.203125 -57.40625 L 59.203125 -25.578125 C 59.203125 -17.054688 56.835938 -10.472656 52.109375 -5.828125 C 47.378906 -1.179688 40.75 1.140625 32.21875 1.140625 Z M 32.21875 1.140625 "/></g></g></g><g fill="#000000" fill-opacity="1"><g transform="translate(703.214566, 983.647215)"><g><path d="M 17.953125 -44.53125 L 0.328125 -44.53125 L 0.328125 -57.40625 L 51.734375 -57.40625 L 51.734375 -44.53125 L 34.1875 -44.53125 L 34.1875 0 L 17.953125 0 Z M 17.953125 -44.53125 "/></g></g></g><g fill="#000000" fill-opacity="1"><g transform="translate(751.18206, 983.647215)"><g/></g></g><g fill="#000000" fill-opacity="1"><g transform="translate(770.942938, 983.647215)"><g><path d="M 60.359375 -57.40625 L 60.359375 0 L 46.984375 0 L 21.640625 -30.59375 L 21.640625 0 L 5.734375 0 L 5.734375 -57.40625 L 19.109375 -57.40625 L 44.4375 -26.8125 L 44.4375 -57.40625 Z M 60.359375 -57.40625 "/></g></g></g><g fill="#000000" fill-opacity="1"><g transform="translate(832.931732, 983.647215)"><g><path d="M 51.828125 -12.546875 L 51.828125 0 L 5.734375 0 L 5.734375 -57.40625 L 50.765625 -57.40625 L 50.765625 -44.859375 L 21.8125 -44.859375 L 21.8125 -35.171875 L 47.3125 -35.171875 L 47.3125 -23.046875 L 21.8125 -23.046875 L 21.8125 -12.546875 Z M 51.828125 -12.546875 "/></g></g></g><g fill="#000000" fill-opacity="1"><g transform="translate(883.933055, 983.647215)"><g><path d="M 17.953125 -44.53125 L 0.328125 -44.53125 L 0.328125 -57.40625 L 51.734375 -57.40625 L 51.734375 -44.53125 L 34.1875 -44.53125 L 34.1875 0 L 17.953125 0 Z M 17.953125 -44.53125 "/></g></g></g><g fill="#000000" fill-opacity="1"><g transform="translate(931.90055, 983.647215)"><g><path d="M 95.78125 -57.40625 L 77.15625 0 L 59.78125 0 L 48.796875 -34.9375 L 37.3125 0 L 19.921875 0 L 1.3125 -57.40625 L 18.046875 -57.40625 L 29.609375 -20.75 L 41.734375 -57.40625 L 56.65625 -57.40625 L 68.21875 -20.421875 L 80.28125 -57.40625 Z M 95.78125 -57.40625 "/></g></g></g><g fill="#000000" fill-opacity="1"><g transform="translate(1024.883879, 983.647215)"><g><path d="M 34.6875 1.140625 C 28.613281 1.140625 23.15625 -0.140625 18.3125 -2.703125 C 13.476562 -5.273438 9.679688 -8.828125 6.921875 -13.359375 C 4.160156 -17.898438 2.78125 -23.015625 2.78125 -28.703125 C 2.78125 -34.390625 4.160156 -39.5 6.921875 -44.03125 C 9.679688 -48.570312 13.476562 -52.125 18.3125 -54.6875 C 23.15625 -57.257812 28.613281 -58.546875 34.6875 -58.546875 C 40.75 -58.546875 46.195312 -57.257812 51.03125 -54.6875 C 55.875 -52.125 59.675781 -48.570312 62.4375 -44.03125 C 65.195312 -39.5 66.578125 -34.390625 66.578125 -28.703125 C 66.578125 -23.015625 65.195312 -17.898438 62.4375 -13.359375 C 59.675781 -8.828125 55.875 -5.273438 51.03125 -2.703125 C 46.195312 -0.140625 40.75 1.140625 34.6875 1.140625 Z M 34.6875 -12.296875 C 37.582031 -12.296875 40.203125 -12.976562 42.546875 -14.34375 C 44.898438 -15.71875 46.757812 -17.644531 48.125 -20.125 C 49.5 -22.613281 50.1875 -25.472656 50.1875 -28.703125 C 50.1875 -31.921875 49.5 -34.773438 48.125 -37.265625 C 46.757812 -39.753906 44.898438 -41.679688 42.546875 -43.046875 C 40.203125 -44.410156 37.582031 -45.09375 34.6875 -45.09375 C 31.789062 -45.09375 29.164062 -44.410156 26.8125 -43.046875 C 24.457031 -41.679688 22.597656 -39.753906 21.234375 -37.265625 C 19.867188 -34.773438 19.1875 -31.921875 19.1875 -28.703125 C 19.1875 -25.472656 19.867188 -22.613281 21.234375 -20.125 C 22.597656 -17.644531 24.457031 -15.71875 26.8125 -14.34375 C 29.164062 -12.976562 31.789062 -12.296875 34.6875 -12.296875 Z M 34.6875 -12.296875 "/></g></g></g><g fill="#000000" fill-opacity="1"><g transform="translate(1090.15255, 983.647215)"><g><path d="M 30.828125 -15.25 L 21.96875 -15.25 L 21.96875 0 L 5.734375 0 L 5.734375 -57.40625 L 31.984375 -57.40625 C 37.171875 -57.40625 41.675781 -56.539062 45.5 -54.8125 C 49.332031 -53.09375 52.285156 -50.632812 54.359375 -47.4375 C 56.441406 -44.238281 57.484375 -40.476562 57.484375 -36.15625 C 57.484375 -32.007812 56.507812 -28.390625 54.5625 -25.296875 C 52.625 -22.203125 49.851562 -19.785156 46.25 -18.046875 L 58.625 0 L 41.25 0 Z M 41.078125 -36.15625 C 41.078125 -38.84375 40.226562 -40.921875 38.53125 -42.390625 C 36.84375 -43.867188 34.332031 -44.609375 31 -44.609375 L 21.96875 -44.609375 L 21.96875 -27.796875 L 31 -27.796875 C 34.332031 -27.796875 36.84375 -28.519531 38.53125 -29.96875 C 40.226562 -31.414062 41.078125 -33.476562 41.078125 -36.15625 Z M 41.078125 -36.15625 "/></g></g></g><g fill="#000000" fill-opacity="1"><g transform="translate(1146.729571, 983.647215)"><g><path d="M 27.875 -20.828125 L 21.8125 -14.34375 L 21.8125 0 L 5.734375 0 L 5.734375 -57.40625 L 21.8125 -57.40625 L 21.8125 -33.53125 L 44.03125 -57.40625 L 61.90625 -57.40625 L 38.453125 -31.984375 L 63.140625 0 L 44.28125 0 Z M 27.875 -20.828125 "/></g></g></g></svg>