<svg xmlns="http://www.w3.org/2000/svg" xmlns:xlink="http://www.w3.org/1999/xlink" width="2000" zoomAndPan="magnify" viewBox="0 0 1500 1499.999933" height="2000" preserveAspectRatio="xMidYMid meet" version="1.0"><defs><g/><clipPath id="a703e5ecc8"><path d="M 136.816406 260 L 1384.816406 260 L 1384.816406 1239.992188 L 136.816406 1239.992188 Z M 136.816406 260 " clip-rule="nonzero"/></clipPath></defs><g clip-path="url(#a703e5ecc8)"><path fill="#ffffff" d="M 1385.152344 423.972656 L 1385.152344 1039.699219 C 1385.152344 1040.878906 1384.640625 1041.925781 1383.816406 1042.652344 C 1383.214844 1043.179688 1382.449219 1043.535156 1381.597656 1043.613281 L 1356.699219 1045.925781 L 1346.035156 1046.921875 L 1319.113281 1049.433594 L 1312.242188 1050.070312 L 1312.242188 1235.9375 C 1312.242188 1237.511719 1311.3125 1238.921875 1309.863281 1239.539062 C 1309.371094 1239.757812 1308.839844 1239.863281 1308.316406 1239.863281 C 1307.335938 1239.863281 1306.363281 1239.488281 1305.617188 1238.796875 L 1254.007812 1190.046875 L 1253.992188 1190.046875 C 1253.789062 1189.910156 1253.59375 1189.753906 1253.414062 1189.585938 L 1124.246094 1067.59375 L 1093.175781 1070.488281 L 1082.507812 1071.480469 L 1042.898438 1075.171875 L 1032.238281 1076.164062 L 992.628906 1079.851562 L 981.96875 1080.851562 L 981.957031 1080.851562 L 942.347656 1084.539062 L 931.683594 1085.53125 L 892.0625 1089.21875 L 881.402344 1090.210938 L 881.390625 1090.210938 L 841.785156 1093.914062 L 841.773438 1093.914062 L 831.113281 1094.90625 L 791.507812 1098.59375 L 780.828125 1099.585938 L 741.21875 1103.277344 L 730.558594 1104.269531 L 690.949219 1107.96875 L 680.28125 1108.960938 L 640.671875 1112.652344 L 630.011719 1113.644531 L 590.390625 1117.332031 L 579.726562 1118.324219 L 579.714844 1118.324219 L 540.113281 1122.027344 L 529.453125 1123.019531 L 489.828125 1126.707031 L 479.167969 1127.699219 L 439.546875 1131.390625 L 428.886719 1132.382812 L 428.871094 1132.382812 L 389.269531 1136.082031 L 378.601562 1137.074219 L 338.992188 1140.765625 L 328.324219 1141.757812 L 288.722656 1145.445312 L 278.054688 1146.4375 L 238.445312 1150.140625 L 227.777344 1151.132812 L 193.316406 1154.339844 C 192.199219 1154.441406 191.089844 1154.066406 190.265625 1153.292969 L 138.128906 1104.105469 L 138.078125 1104.070312 C 137.890625 1103.894531 137.722656 1103.707031 137.585938 1103.5 C 137.515625 1103.414062 137.460938 1103.328125 137.410156 1103.226562 C 137.242188 1102.964844 137.117188 1102.675781 137.03125 1102.382812 C 136.949219 1102.140625 136.90625 1101.882812 136.875 1101.628906 C 136.859375 1101.492188 136.855469 1101.355469 136.855469 1101.214844 L 136.855469 264.035156 C 136.855469 262.9375 137.316406 261.890625 138.128906 261.140625 C 138.9375 260.390625 140.042969 260.027344 141.144531 260.128906 L 1267.25 365.0625 L 1280.382812 366.292969 L 1326.816406 370.621094 L 1329.230469 370.84375 L 1329.386719 370.855469 C 1329.476562 370.871094 1329.554688 370.875 1329.644531 370.886719 C 1329.742188 370.90625 1329.832031 370.925781 1329.917969 370.945312 C 1330.054688 370.976562 1330.179688 371.011719 1330.316406 371.0625 C 1330.398438 371.09375 1330.484375 371.117188 1330.5625 371.164062 C 1330.667969 371.199219 1330.765625 371.25 1330.867188 371.3125 C 1330.949219 371.351562 1331.023438 371.394531 1331.105469 371.4375 C 1331.191406 371.488281 1331.273438 371.542969 1331.347656 371.613281 C 1331.453125 371.679688 1331.566406 371.769531 1331.660156 371.867188 C 1331.679688 371.878906 1331.691406 371.886719 1331.710938 371.90625 L 1383.921875 421.113281 C 1384.363281 421.527344 1384.695312 422.042969 1384.902344 422.605469 C 1385.070312 423.039062 1385.144531 423.5 1385.144531 423.972656 Z M 1385.152344 423.972656 " fill-opacity="1" fill-rule="nonzero"/><path fill="#000000" d="M 1384.902344 422.605469 C 1384.695312 422.042969 1384.363281 421.527344 1383.921875 421.113281 L 1331.710938 371.90625 C 1331.710938 371.90625 1331.679688 371.875 1331.660156 371.867188 C 1331.558594 371.769531 1331.453125 371.679688 1331.347656 371.613281 C 1331.265625 371.542969 1331.191406 371.488281 1331.105469 371.4375 C 1331.023438 371.386719 1330.949219 371.351562 1330.867188 371.3125 C 1330.765625 371.257812 1330.671875 371.207031 1330.5625 371.164062 C 1330.480469 371.125 1330.390625 371.09375 1330.316406 371.0625 C 1330.179688 371.011719 1330.054688 370.976562 1329.917969 370.945312 C 1329.832031 370.925781 1329.742188 370.90625 1329.644531 370.886719 C 1329.554688 370.875 1329.476562 370.871094 1329.386719 370.855469 L 1329.230469 370.84375 L 1326.816406 370.621094 L 1280.382812 366.292969 L 1267.25 365.0625 L 141.136719 260.128906 C 140.039062 260.027344 138.9375 260.390625 138.121094 261.140625 C 137.304688 261.890625 136.847656 262.9375 136.847656 264.035156 L 136.847656 1101.214844 C 136.847656 1101.355469 136.859375 1101.492188 136.867188 1101.628906 C 136.898438 1101.882812 136.949219 1102.140625 137.023438 1102.382812 C 137.109375 1102.675781 137.242188 1102.964844 137.402344 1103.226562 C 137.453125 1103.328125 137.511719 1103.414062 137.578125 1103.5 C 137.714844 1103.707031 137.882812 1103.894531 138.070312 1104.070312 L 138.121094 1104.105469 L 190.285156 1153.277344 C 191.105469 1154.050781 192.21875 1154.425781 193.335938 1154.328125 L 227.796875 1151.117188 L 238.464844 1150.125 L 278.074219 1146.425781 L 288.738281 1145.433594 L 328.34375 1141.742188 L 339.011719 1140.75 L 378.621094 1137.0625 L 389.289062 1136.070312 L 428.890625 1132.367188 L 428.902344 1132.367188 L 439.5625 1131.375 L 479.1875 1127.6875 L 489.847656 1126.695312 L 529.46875 1123.007812 L 540.128906 1122.015625 L 579.734375 1118.3125 L 579.746094 1118.3125 L 590.40625 1117.320312 L 630.03125 1113.632812 L 640.691406 1112.640625 L 680.300781 1108.949219 L 690.96875 1107.957031 L 730.578125 1104.257812 L 741.238281 1103.265625 L 780.847656 1099.574219 L 791.527344 1098.582031 L 831.132812 1094.894531 L 841.792969 1093.902344 L 841.804688 1093.902344 L 881.40625 1090.199219 L 881.421875 1090.199219 L 892.082031 1089.207031 L 931.703125 1085.519531 L 942.363281 1084.527344 L 981.972656 1080.835938 L 981.988281 1080.835938 L 992.648438 1079.839844 L 1032.257812 1076.148438 L 1042.917969 1075.15625 L 1082.527344 1071.46875 L 1093.195312 1070.476562 L 1124.265625 1067.582031 L 1253.433594 1189.574219 C 1253.605469 1189.742188 1253.804688 1189.898438 1254.011719 1190.035156 L 1254.023438 1190.035156 L 1305.636719 1238.785156 C 1306.378906 1239.484375 1307.355469 1239.851562 1308.332031 1239.851562 C 1308.863281 1239.851562 1309.394531 1239.746094 1309.882812 1239.527344 C 1311.324219 1238.910156 1312.261719 1237.492188 1312.261719 1235.925781 L 1312.261719 1050.058594 L 1319.132812 1049.421875 L 1346.050781 1046.90625 L 1356.71875 1045.914062 L 1381.617188 1043.597656 C 1382.472656 1043.519531 1383.234375 1043.167969 1383.832031 1042.636719 C 1384.65625 1041.914062 1385.167969 1040.859375 1385.167969 1039.6875 L 1385.167969 423.972656 C 1385.167969 423.503906 1385.089844 423.042969 1384.925781 422.605469 Z M 144.699219 268.34375 L 1127.492188 359.921875 L 1277.070312 373.859375 L 1290.203125 375.089844 L 1325.09375 378.335938 L 1325.09375 986.914062 L 1321.886719 987.207031 L 1321.871094 987.207031 L 1293.996094 989.808594 L 1283.328125 990.800781 L 1256.410156 993.316406 L 1255.734375 993.371094 C 1253.726562 993.558594 1252.171875 995.257812 1252.171875 997.28125 L 1252.171875 1177.519531 L 1128.429688 1060.652344 C 1128.253906 1060.476562 1128.050781 1060.328125 1127.84375 1060.191406 L 1127.824219 1060.175781 L 1076.21875 1011.4375 C 1075.492188 1010.75 1074.519531 1010.367188 1073.527344 1010.367188 C 1073.402344 1010.367188 1073.285156 1010.382812 1073.164062 1010.386719 L 1030.484375 1014.363281 L 1019.816406 1015.363281 L 1019.804688 1015.363281 L 980.203125 1019.050781 L 969.542969 1020.042969 L 929.917969 1023.730469 L 919.257812 1024.726562 L 919.246094 1024.726562 L 879.636719 1028.414062 L 868.988281 1029.414062 L 868.976562 1029.414062 L 829.363281 1033.101562 L 818.699219 1034.09375 L 779.089844 1037.78125 L 768.421875 1038.773438 L 728.816406 1042.464844 L 718.152344 1043.460938 L 678.539062 1047.152344 L 667.878906 1048.144531 L 628.257812 1051.832031 L 617.589844 1052.824219 L 577.980469 1056.511719 L 577.96875 1056.511719 L 567.320312 1057.511719 L 527.710938 1061.203125 L 517.042969 1062.195312 L 477.433594 1065.882812 L 466.773438 1066.875 L 427.164062 1070.5625 L 427.148438 1070.5625 L 416.488281 1071.5625 L 376.878906 1075.25 L 376.867188 1075.25 L 366.207031 1076.242188 L 326.601562 1079.933594 L 315.921875 1080.925781 L 276.320312 1084.613281 L 276.308594 1084.613281 L 265.660156 1085.613281 L 265.644531 1085.613281 L 226.042969 1089.300781 L 226.03125 1089.300781 L 215.367188 1090.292969 L 215.355469 1090.292969 L 175.746094 1093.984375 L 165.085938 1094.976562 L 144.96875 1096.847656 L 144.675781 1096.878906 L 144.675781 268.34375 Z M 194.382812 1146.351562 L 149.789062 1104.3125 L 173.085938 1102.140625 L 173.101562 1102.140625 L 219.824219 1143.972656 Z M 230.492188 1142.984375 L 183.753906 1101.148438 L 223.363281 1097.460938 L 270.109375 1139.296875 L 230.484375 1142.984375 Z M 280.769531 1138.304688 L 234.03125 1096.464844 L 273.640625 1092.777344 L 320.378906 1134.617188 Z M 331.046875 1133.609375 L 331.035156 1133.609375 L 284.308594 1091.777344 L 323.910156 1088.089844 L 370.648438 1129.921875 Z M 381.316406 1128.929688 L 334.578125 1087.089844 L 374.1875 1083.402344 L 420.925781 1125.242188 Z M 431.585938 1124.25 L 384.851562 1082.410156 L 424.472656 1078.722656 L 471.210938 1120.558594 Z M 481.875 1119.554688 L 481.863281 1119.554688 L 435.140625 1077.722656 L 474.75 1074.035156 L 521.488281 1115.867188 Z M 532.148438 1114.875 L 485.410156 1073.035156 L 525.019531 1069.347656 L 571.757812 1111.183594 Z M 582.425781 1110.191406 L 535.6875 1068.355469 L 575.296875 1064.664062 L 622.035156 1106.503906 Z M 632.695312 1105.511719 L 585.957031 1063.671875 L 625.566406 1059.984375 L 672.304688 1101.816406 L 632.695312 1105.515625 Z M 682.972656 1100.816406 L 636.234375 1058.980469 L 675.84375 1055.289062 L 722.589844 1097.128906 L 682.964844 1100.816406 Z M 733.25 1096.136719 L 686.503906 1054.296875 L 726.128906 1050.609375 L 772.863281 1092.445312 L 733.253906 1096.136719 Z M 783.527344 1091.441406 L 783.511719 1091.441406 L 736.789062 1049.609375 L 776.390625 1045.921875 L 823.128906 1087.753906 Z M 833.796875 1086.761719 L 787.058594 1044.921875 L 826.660156 1041.234375 L 826.675781 1041.234375 L 873.414062 1083.070312 L 833.800781 1086.761719 Z M 884.074219 1082.078125 L 837.328125 1040.242188 L 876.953125 1036.550781 L 923.6875 1078.390625 L 884.078125 1082.078125 Z M 934.34375 1077.386719 L 887.605469 1035.554688 L 927.214844 1031.863281 L 927.226562 1031.863281 L 973.953125 1073.695312 Z M 984.621094 1072.703125 L 937.882812 1030.867188 L 977.492188 1027.175781 L 1024.230469 1069.015625 Z M 1034.898438 1068.023438 L 988.152344 1026.183594 L 1027.761719 1022.496094 L 1074.5 1064.335938 Z M 1085.175781 1063.328125 L 1085.164062 1063.328125 L 1038.4375 1021.496094 L 1072.097656 1018.359375 L 1116.613281 1060.402344 L 1085.167969 1063.328125 Z M 1304.363281 1226.816406 L 1260.003906 1184.917969 L 1260.003906 1150.382812 L 1304.363281 1190.09375 Z M 1304.363281 1179.550781 L 1260.003906 1139.839844 L 1260.003906 1102.601562 L 1304.363281 1142.3125 Z M 1304.363281 1131.777344 L 1260.003906 1092.066406 L 1260.003906 1054.839844 L 1304.363281 1094.550781 Z M 1304.363281 1084.007812 L 1260.003906 1044.296875 L 1260.003906 1007.074219 L 1304.363281 1046.78125 Z M 1311.105469 1042.277344 L 1264.367188 1000.445312 L 1291.289062 997.929688 L 1338.027344 1039.761719 Z M 1348.691406 1038.773438 L 1301.949219 996.9375 L 1329.363281 994.382812 C 1329.511719 994.371094 1329.65625 994.347656 1329.804688 994.316406 L 1376.582031 1036.183594 L 1348.699219 1038.773438 Z M 1377.273438 1026.273438 L 1332.921875 986.574219 L 1332.921875 949.335938 L 1377.273438 989.035156 Z M 1377.273438 978.503906 L 1332.921875 938.808594 L 1332.921875 901.570312 L 1377.273438 941.265625 Z M 1377.273438 930.738281 L 1332.921875 891.039062 L 1332.921875 853.800781 L 1377.273438 893.5 Z M 1377.273438 882.96875 L 1332.921875 843.273438 L 1332.921875 806.035156 L 1377.273438 845.730469 Z M 1377.273438 835.1875 L 1332.921875 795.492188 L 1332.921875 758.253906 L 1377.273438 797.949219 Z M 1377.273438 787.421875 L 1332.921875 747.722656 L 1332.921875 710.484375 L 1377.273438 750.183594 Z M 1377.273438 739.652344 L 1332.921875 699.957031 L 1332.921875 662.71875 L 1377.273438 702.414062 Z M 1377.273438 691.886719 L 1332.921875 652.1875 L 1332.921875 614.945312 L 1377.273438 654.640625 Z M 1377.273438 644.113281 L 1332.921875 604.414062 L 1332.921875 567.175781 L 1377.273438 606.875 Z M 1377.273438 596.34375 L 1332.921875 556.648438 L 1332.921875 519.410156 L 1377.273438 559.105469 Z M 1377.273438 548.578125 L 1332.921875 508.878906 L 1332.921875 471.640625 L 1377.273438 511.339844 Z M 1377.273438 500.808594 L 1332.921875 461.113281 L 1332.921875 423.867188 L 1377.273438 463.5625 Z M 1377.273438 453.027344 L 1332.921875 413.332031 L 1332.921875 383.84375 L 1377.273438 425.652344 Z M 1377.273438 453.027344 " fill-opacity="1" fill-rule="nonzero"/></g><g fill="#000000" fill-opacity="1"><g transform="translate(209.855531, 801.857138)"><g><path d="M 331.203125 -315 L 331.203125 0 L 257.84375 0 L 118.796875 -167.84375 L 118.796875 0 L 31.5 0 L 31.5 -315 L 104.84375 -315 L 243.90625 -147.15625 L 243.90625 -315 Z M 331.203125 -315 "/></g></g></g><g fill="#000000" fill-opacity="1"><g transform="translate(550.054864, 801.857138)"><g><path d="M 273.59375 -164.25 C 291.59375 -157.945312 305.691406 -148.117188 315.890625 -134.765625 C 326.097656 -121.421875 331.203125 -105.300781 331.203125 -86.40625 C 331.203125 -58.800781 320.097656 -37.5 297.890625 -22.5 C 275.691406 -7.5 243.59375 0 201.59375 0 L 31.5 0 L 31.5 -315 L 192.59375 -315 C 232.800781 -315 263.40625 -307.570312 284.40625 -292.71875 C 305.40625 -277.875 315.90625 -257.851562 315.90625 -232.65625 C 315.90625 -217.65625 312.226562 -204.226562 304.875 -192.375 C 297.519531 -180.519531 287.09375 -171.144531 273.59375 -164.25 Z M 119.703125 -250.65625 L 119.703125 -189.90625 L 180.90625 -189.90625 C 210.90625 -189.90625 225.90625 -200.101562 225.90625 -220.5 C 225.90625 -240.601562 210.90625 -250.65625 180.90625 -250.65625 Z M 194.40625 -64.34375 C 225.601562 -64.34375 241.203125 -74.992188 241.203125 -96.296875 C 241.203125 -117.597656 225.601562 -128.25 194.40625 -128.25 L 119.703125 -128.25 L 119.703125 -64.34375 Z M 194.40625 -64.34375 "/></g></g></g><g fill="#000000" fill-opacity="1"><g transform="translate(873.604191, 801.857138)"><g><path d="M 331.203125 -315 L 331.203125 0 L 257.84375 0 L 118.796875 -167.84375 L 118.796875 0 L 31.5 0 L 31.5 -315 L 104.84375 -315 L 243.90625 -147.15625 L 243.90625 -315 Z M 331.203125 -315 "/></g></g></g><g fill="#000000" fill-opacity="1"><g transform="translate(232.344593, 890.307023)"><g><path d="M 60.359375 -57.40625 L 60.359375 0 L 46.984375 0 L 21.640625 -30.59375 L 21.640625 0 L 5.734375 0 L 5.734375 -57.40625 L 19.109375 -57.40625 L 44.4375 -26.8125 L 44.4375 -57.40625 Z M 60.359375 -57.40625 "/></g></g></g><g fill="#000000" fill-opacity="1"><g transform="translate(294.3334, 890.307023)"><g><path d="M 51.828125 -12.546875 L 51.828125 0 L 5.734375 0 L 5.734375 -57.40625 L 50.765625 -57.40625 L 50.765625 -44.859375 L 21.8125 -44.859375 L 21.8125 -35.171875 L 47.3125 -35.171875 L 47.3125 -23.046875 L 21.8125 -23.046875 L 21.8125 -12.546875 Z M 51.828125 -12.546875 "/></g></g></g><g fill="#000000" fill-opacity="1"><g transform="translate(345.334746, 890.307023)"><g><path d="M 95.78125 -57.40625 L 77.15625 0 L 59.78125 0 L 48.796875 -34.9375 L 37.3125 0 L 19.921875 0 L 1.3125 -57.40625 L 18.046875 -57.40625 L 29.609375 -20.75 L 41.734375 -57.40625 L 56.65625 -57.40625 L 68.21875 -20.421875 L 80.28125 -57.40625 Z M 95.78125 -57.40625 "/></g></g></g><g fill="#000000" fill-opacity="1"><g transform="translate(438.318041, 890.307023)"><g/></g></g><g fill="#000000" fill-opacity="1"><g transform="translate(458.078918, 890.307023)"><g><path d="M 49.859375 -29.9375 C 53.140625 -28.78125 55.707031 -26.984375 57.5625 -24.546875 C 59.425781 -22.117188 60.359375 -19.1875 60.359375 -15.75 C 60.359375 -10.71875 58.332031 -6.832031 54.28125 -4.09375 C 50.238281 -1.363281 44.390625 0 36.734375 0 L 5.734375 0 L 5.734375 -57.40625 L 35.09375 -57.40625 C 42.414062 -57.40625 47.988281 -56.050781 51.8125 -53.34375 C 55.644531 -50.632812 57.5625 -46.984375 57.5625 -42.390625 C 57.5625 -39.660156 56.890625 -37.210938 55.546875 -35.046875 C 54.210938 -32.890625 52.316406 -31.1875 49.859375 -29.9375 Z M 21.8125 -45.671875 L 21.8125 -34.609375 L 32.96875 -34.609375 C 38.425781 -34.609375 41.15625 -36.46875 41.15625 -40.1875 C 41.15625 -43.84375 38.425781 -45.671875 32.96875 -45.671875 Z M 35.421875 -11.71875 C 41.109375 -11.71875 43.953125 -13.660156 43.953125 -17.546875 C 43.953125 -21.429688 41.109375 -23.375 35.421875 -23.375 L 21.8125 -23.375 L 21.8125 -11.71875 Z M 35.421875 -11.71875 "/></g></g></g><g fill="#000000" fill-opacity="1"><g transform="translate(517.033862, 890.307023)"><g><path d="M 51.828125 -12.546875 L 51.828125 0 L 5.734375 0 L 5.734375 -57.40625 L 50.765625 -57.40625 L 50.765625 -44.859375 L 21.8125 -44.859375 L 21.8125 -35.171875 L 47.3125 -35.171875 L 47.3125 -23.046875 L 21.8125 -23.046875 L 21.8125 -12.546875 Z M 51.828125 -12.546875 "/></g></g></g><g fill="#000000" fill-opacity="1"><g transform="translate(568.035208, 890.307023)"><g><path d="M 5.734375 -57.40625 L 21.96875 -57.40625 L 21.96875 0 L 5.734375 0 Z M 5.734375 -57.40625 "/></g></g></g><g fill="#000000" fill-opacity="1"><g transform="translate(591.731892, 890.307023)"><g><path d="M 30.828125 -15.25 L 21.96875 -15.25 L 21.96875 0 L 5.734375 0 L 5.734375 -57.40625 L 31.984375 -57.40625 C 37.171875 -57.40625 41.675781 -56.539062 45.5 -54.8125 C 49.332031 -53.09375 52.285156 -50.632812 54.359375 -47.4375 C 56.441406 -44.238281 57.484375 -40.476562 57.484375 -36.15625 C 57.484375 -32.007812 56.507812 -28.390625 54.5625 -25.296875 C 52.625 -22.203125 49.851562 -19.785156 46.25 -18.046875 L 58.625 0 L 41.25 0 Z M 41.078125 -36.15625 C 41.078125 -38.84375 40.226562 -40.921875 38.53125 -42.390625 C 36.84375 -43.867188 34.332031 -44.609375 31 -44.609375 L 21.96875 -44.609375 L 21.96875 -27.796875 L 31 -27.796875 C 34.332031 -27.796875 36.84375 -28.519531 38.53125 -29.96875 C 40.226562 -31.414062 41.078125 -33.476562 41.078125 -36.15625 Z M 41.078125 -36.15625 "/></g></g></g><g fill="#000000" fill-opacity="1"><g transform="translate(648.308959, 890.307023)"><g><path d="M 32.21875 1.140625 C 23.695312 1.140625 17.070312 -1.179688 12.34375 -5.828125 C 7.613281 -10.472656 5.25 -17.054688 5.25 -25.578125 L 5.25 -57.40625 L 21.484375 -57.40625 L 21.484375 -26.078125 C 21.484375 -16.890625 25.117188 -12.296875 32.390625 -12.296875 C 39.609375 -12.296875 43.21875 -16.890625 43.21875 -26.078125 L 43.21875 -57.40625 L 59.203125 -57.40625 L 59.203125 -25.578125 C 59.203125 -17.054688 56.835938 -10.472656 52.109375 -5.828125 C 47.378906 -1.179688 40.75 1.140625 32.21875 1.140625 Z M 32.21875 1.140625 "/></g></g></g><g fill="#000000" fill-opacity="1"><g transform="translate(708.657815, 890.307023)"><g><path d="M 17.953125 -44.53125 L 0.328125 -44.53125 L 0.328125 -57.40625 L 51.734375 -57.40625 L 51.734375 -44.53125 L 34.1875 -44.53125 L 34.1875 0 L 17.953125 0 Z M 17.953125 -44.53125 "/></g></g></g><g fill="#000000" fill-opacity="1"><g transform="translate(756.62531, 890.307023)"><g/></g></g><g fill="#000000" fill-opacity="1"><g transform="translate(776.386188, 890.307023)"><g><path d="M 60.359375 -57.40625 L 60.359375 0 L 46.984375 0 L 21.640625 -30.59375 L 21.640625 0 L 5.734375 0 L 5.734375 -57.40625 L 19.109375 -57.40625 L 44.4375 -26.8125 L 44.4375 -57.40625 Z M 60.359375 -57.40625 "/></g></g></g><g fill="#000000" fill-opacity="1"><g transform="translate(838.374982, 890.307023)"><g><path d="M 51.828125 -12.546875 L 51.828125 0 L 5.734375 0 L 5.734375 -57.40625 L 50.765625 -57.40625 L 50.765625 -44.859375 L 21.8125 -44.859375 L 21.8125 -35.171875 L 47.3125 -35.171875 L 47.3125 -23.046875 L 21.8125 -23.046875 L 21.8125 -12.546875 Z M 51.828125 -12.546875 "/></g></g></g><g fill="#000000" fill-opacity="1"><g transform="translate(889.376305, 890.307023)"><g><path d="M 17.953125 -44.53125 L 0.328125 -44.53125 L 0.328125 -57.40625 L 51.734375 -57.40625 L 51.734375 -44.53125 L 34.1875 -44.53125 L 34.1875 0 L 17.953125 0 Z M 17.953125 -44.53125 "/></g></g></g><g fill="#000000" fill-opacity="1"><g transform="translate(937.3438, 890.307023)"><g><path d="M 95.78125 -57.40625 L 77.15625 0 L 59.78125 0 L 48.796875 -34.9375 L 37.3125 0 L 19.921875 0 L 1.3125 -57.40625 L 18.046875 -57.40625 L 29.609375 -20.75 L 41.734375 -57.40625 L 56.65625 -57.40625 L 68.21875 -20.421875 L 80.28125 -57.40625 Z M 95.78125 -57.40625 "/></g></g></g><g fill="#000000" fill-opacity="1"><g transform="translate(1030.327129, 890.307023)"><g><path d="M 34.6875 1.140625 C 28.613281 1.140625 23.15625 -0.140625 18.3125 -2.703125 C 13.476562 -5.273438 9.679688 -8.828125 6.921875 -13.359375 C 4.160156 -17.898438 2.78125 -23.015625 2.78125 -28.703125 C 2.78125 -34.390625 4.160156 -39.5 6.921875 -44.03125 C 9.679688 -48.570312 13.476562 -52.125 18.3125 -54.6875 C 23.15625 -57.257812 28.613281 -58.546875 34.6875 -58.546875 C 40.75 -58.546875 46.195312 -57.257812 51.03125 -54.6875 C 55.875 -52.125 59.675781 -48.570312 62.4375 -44.03125 C 65.195312 -39.5 66.578125 -34.390625 66.578125 -28.703125 C 66.578125 -23.015625 65.195312 -17.898438 62.4375 -13.359375 C 59.675781 -8.828125 55.875 -5.273438 51.03125 -2.703125 C 46.195312 -0.140625 40.75 1.140625 34.6875 1.140625 Z M 34.6875 -12.296875 C 37.582031 -12.296875 40.203125 -12.976562 42.546875 -14.34375 C 44.898438 -15.71875 46.757812 -17.644531 48.125 -20.125 C 49.5 -22.613281 50.1875 -25.472656 50.1875 -28.703125 C 50.1875 -31.921875 49.5 -34.773438 48.125 -37.265625 C 46.757812 -39.753906 44.898438 -41.679688 42.546875 -43.046875 C 40.203125 -44.410156 37.582031 -45.09375 34.6875 -45.09375 C 31.789062 -45.09375 29.164062 -44.410156 26.8125 -43.046875 C 24.457031 -41.679688 22.597656 -39.753906 21.234375 -37.265625 C 19.867188 -34.773438 19.1875 -31.921875 19.1875 -28.703125 C 19.1875 -25.472656 19.867188 -22.613281 21.234375 -20.125 C 22.597656 -17.644531 24.457031 -15.71875 26.8125 -14.34375 C 29.164062 -12.976562 31.789062 -12.296875 34.6875 -12.296875 Z M 34.6875 -12.296875 "/></g></g></g><g fill="#000000" fill-opacity="1"><g transform="translate(1095.5958, 890.307023)"><g><path d="M 30.828125 -15.25 L 21.96875 -15.25 L 21.96875 0 L 5.734375 0 L 5.734375 -57.40625 L 31.984375 -57.40625 C 37.171875 -57.40625 41.675781 -56.539062 45.5 -54.8125 C 49.332031 -53.09375 52.285156 -50.632812 54.359375 -47.4375 C 56.441406 -44.238281 57.484375 -40.476562 57.484375 -36.15625 C 57.484375 -32.007812 56.507812 -28.390625 54.5625 -25.296875 C 52.625 -22.203125 49.851562 -19.785156 46.25 -18.046875 L 58.625 0 L 41.25 0 Z M 41.078125 -36.15625 C 41.078125 -38.84375 40.226562 -40.921875 38.53125 -42.390625 C 36.84375 -43.867188 34.332031 -44.609375 31 -44.609375 L 21.96875 -44.609375 L 21.96875 -27.796875 L 31 -27.796875 C 34.332031 -27.796875 36.84375 -28.519531 38.53125 -29.96875 C 40.226562 -31.414062 41.078125 -33.476562 41.078125 -36.15625 Z M 41.078125 -36.15625 "/></g></g></g><g fill="#000000" fill-opacity="1"><g transform="translate(1152.172821, 890.307023)"><g><path d="M 27.875 -20.828125 L 21.8125 -14.34375 L 21.8125 0 L 5.734375 0 L 5.734375 -57.40625 L 21.8125 -57.40625 L 21.8125 -33.53125 L 44.03125 -57.40625 L 61.90625 -57.40625 L 38.453125 -31.984375 L 63.140625 0 L 44.28125 0 Z M 27.875 -20.828125 "/></g></g></g></svg>